<svg width="256" height="256" viewBox="0 0 256 256" fill="none" xmlns="http://www.w3.org/2000/svg">
<path d="M105.521 42.4026H156.097H256V149.201V256C256 256 223.898 185.019 206.049 175.437C189.406 166.503 154.848 169.607 154.848 169.607C154.848 169.607 238.517 84.804 206.049 84.804C176.788 84.804 131.121 84.804 131.121 84.804H105.521V42.4026Z" fill="url(#paint0_linear_1423_23)"/>
<rect y="42.4026" width="48.7028" height="42.4014" fill="url(#paint1_linear_1423_23)"/>
<rect x="204.804" width="49.9516" height="32.8611" fill="url(#paint2_linear_1423_23)"/>
<path d="M48.7041 0H98.6557V125.879V193.456C98.6557 216.777 181.7 255.998 181.7 255.998H113.641H80.5482H63.6896H56.8212H48.7041V246.756V240.164V226.98V200.612V147.875V0Z" fill="url(#paint3_linear_1423_23)"/>
<defs>
<linearGradient id="paint0_linear_1423_23" x1="180.761" y1="42.4026" x2="180.761" y2="256" gradientUnits="userSpaceOnUse">
<stop stop-color="#255BE0"/>
<stop offset="1" stop-color="#4A72FF"/>
</linearGradient>
<linearGradient id="paint1_linear_1423_23" x1="24.3514" y1="42.4026" x2="24.3514" y2="84.804" gradientUnits="userSpaceOnUse">
<stop stop-color="#255BE0"/>
<stop offset="1" stop-color="#4A72FF"/>
</linearGradient>
<linearGradient id="paint2_linear_1423_23" x1="229.78" y1="0" x2="229.78" y2="32.8611" gradientUnits="userSpaceOnUse">
<stop stop-color="#255BE0"/>
<stop offset="1" stop-color="#4A72FF"/>
</linearGradient>
<linearGradient id="paint3_linear_1423_23" x1="115.202" y1="0" x2="115.202" y2="255.998" gradientUnits="userSpaceOnUse">
<stop stop-color="#255BE0"/>
<stop offset="1" stop-color="#4A72FF"/>
</linearGradient>
</defs>
</svg>
